<svg id="Capa_1" data-name="Capa 1" xmlns="http://www.w3.org/2000/svg" viewBox="0 0 768 768"><defs><style>.cls-1{fill:#ff1736;}.cls-2{fill:#fff;}</style></defs><title>huts logo</title><path class="cls-1" d="M746.1,392.442c-1.673,94.318-39.868,180.906-116.832,250.385-72.33,65.3-158.79,96.792-257.188,93.718-98.6-3.081-182.828-40.428-250.7-110.075C52.442,555.728,18.97,470.636,22.07,373.162c3.069-96.48,41.534-178.68,113.563-244.85C209.7,60.269,298.9,27.643,400.537,32.163c99.9,4.443,184.49,43.983,251.78,116.123C714.615,215.073,745.434,294.3,746.1,392.442Zm-.367-8.192c0,194.68-162.19,352.5-362.262,352.5S21.207,578.93,21.207,384.25,183.4,31.75,383.469,31.75,745.731,189.57,745.731,384.25Z"/><path class="cls-2" d="M288.691,429.7c0-36.062.191-72.125-.106-108.184-.1-12.132,12.847-25.085,27.669-22.191,8.7,1.7,14.443,6.065,17.842,13.6,1.527,3.384,1.8,7.215,1.825,10.928.081,11.269-.216,22.545.085,33.806.5,18.515,11.305,33.891,28.437,41.111,24.917,10.5,51.514.408,63.07-23.271a35.772,35.772,0,0,0,3.967-16.764c-.272-11.564-.338-23.145,0-34.7.3-10.31,4.121-18.7,14.732-23.15,12.86-5.4,27.3,1.209,31.572,13.136a35.564,35.564,0,0,1,1.837,12.307q-.08,105.029-.038,210.058c0,7.969-.642,8.578-9.03,8.578q-15.982,0-31.965,0c-6.719,0-7.183-.44-7.183-6.848q-.006-47.781,0-95.563c0-6.215,0-6.212-5.6-3.4a95.64,95.64,0,0,1-42.909,9.967,87.866,87.866,0,0,1-35.944-7.72c-1.424-.633-2.919-.838-4.3-1.47-6.589-3.027-6.7-2.961-6.7,3.98q0,47.1,0,94.21c0,6.4-.464,6.838-7.192,6.841-11.427,0-22.855-.094-34.28.05-4.3.055-5.9-1.342-5.879-5.773C288.763,502.72,288.691,466.207,288.691,429.7Z"/><path class="cls-2" d="M288.691,252.124c-.557-12.312,11.412-22.8,23.02-22.734,13.991.076,24.048,10.237,24.725,23.379.606,11.743-12.158,23.818-24.478,23.365C299.869,275.689,288.056,266.117,288.691,252.124Z"/><path class="cls-2" d="M479.581,252.564a24.922,24.922,0,0,1-24.139,23.589c-12.21.41-24.179-11.54-24.04-23.24.15-12.75,11.587-23.888,24.633-23.487C469.464,229.839,478.792,240.389,479.581,252.564Z"/></svg>